<svg xmlns="http://www.w3.org/2000/svg" viewBox="0 0 320 100" width="320" height="100">
  <!-- Shield background -->
  <path d="M30 20 Q30 15 35 15 L85 15 Q90 15 90 20 L90 55 Q90 70 60 75 Q30 70 30 55 Z" fill="#1e40af"/>
  <path d="M35 25 Q35 22 38 22 L82 22 Q85 22 85 25 L85 50 Q85 62 60 67 Q35 62 35 50 Z" fill="#ffffff"/>
  
  <!-- Checkmark in shield -->
  <path d="M50 45 L55 50 L70 35" stroke="#16a34a" stroke-width="3" fill="none" stroke-linecap="round" stroke-linejoin="round"/>
  
  <!-- Company name -->
  <text x="110" y="35" font-family="Arial, sans-serif" font-size="24" font-weight="bold" fill="#1e40af">COMPENSA</text>
  <text x="110" y="55" font-family="Arial, sans-serif" font-size="14" fill="#6b7280">VIENNA INSURANCE GROUP</text>
  
  <!-- Decorative leaf -->
  <ellipse cx="290" cy="30" rx="8" ry="4" fill="#16a34a" transform="rotate(45 290 30)"/>
  <ellipse cx="290" cy="45" rx="6" ry="3" fill="#10b981" transform="rotate(-30 290 45)"/>
  
  <!-- Small dots -->
  <circle cx="100" cy="70" r="2" fill="#fbbf24"/>
  <circle cx="275" cy="65" r="1.5" fill="#f97316"/>
</svg>